<?xml version="1.0" encoding="utf-8"?>
<!-- Generator: Adobe Illustrator 23.0.0, SVG Export Plug-In . SVG Version: 6.00 Build 0)  -->
<svg version="1.1" id="Layer_1" xmlns="http://www.w3.org/2000/svg" xmlns:xlink="http://www.w3.org/1999/xlink" x="0px" y="0px"
	 viewBox="0 0 1477.1 325.5" style="enable-background:new 0 0 1477.1 325.5;" xml:space="preserve">
<style type="text/css">
	.st0{fill:#E8E8E8;}
</style>
<path class="st0" d="M170.7,232.6c-0.1,0-0.2,0-0.2,0h-1.7c-2,0.5-3.5-0.9-5.1-2c-0.4-0.3-0.6-0.8-1-1c-4.3-4.7-6.5-10.2-7.8-15.7
	c-0.7-2.9-1.4-5.7-2.2-8.7c-0.1-0.5-0.1-0.9-0.3-1.7c0,0.4,0,0.6-0.2,0.6c0.1-0.1,0.2-0.4,0.2-0.6c0-0.1,0-0.1,0-0.3
	c0-0.3,0-0.6-0.1-1l-2.3-5.8c-0.1,0-0.1,0-0.1-0.1c-0.6-1.2-1.2-2.5-1.8-3.6c-0.1-0.5-0.3-0.8-0.1-1l-2.6-5.6c-1.8-1.4-3-3.3-4.4-5
	c-2.8-3.1-6.1-5.5-10.8-7.6c2.4-1.8,4.8-3.5,7.2-5.1c-3.7-0.7-6.8-0.3-10.1,0.8c-0.4,0.1-0.9,0.4-1.3,0.6c-2.2,1.4-4.3,2.4-6.7,0.2
	c-0.1-0.3-1.2,0-1.9,0.1c-3.4,0.2-6.7,0.6-10.1,0.8c-0.1-0.3-0.3-0.4-0.4-0.7c3.9-3.6,7.8-7.2,11.7-10.8c3.4-3.2,6.7-6.7,10.2-9.9
	c1.6-1.7,3.6-3,5.2-4.6c1.6-1.6,4-3.2,3.2-6.1c-6.3,2.4-9.4,7.3-14.4,10.7c-4.8,3.5-9.1,7.5-13.3,11.4c-4,3.7-7.9,7.9-12,11.7
	c-0.4-0.1-0.6-0.3-1-0.5c1.8-2.6,3.8-5.3,5.7-8c2.4-3.2,4.8-6.4,7.2-9.7c0.9-1.4,1.4-2.8,2.3-4.1c0.8-1,1.8-2.1,2.7-3.2
	c0.4-0.4,0.6-0.8,1-1.2c1.7-2.1,3.2-4,4.8-6.2c1.1-1.3,1.8-2.7,3-4c3-3.3,6.1-6.7,8.8-10.3c3.9-4.9,7.8-10.1,11.6-15.2
	c0.9-1.3,1.2-2.8,1.7-4.3c-0.3-0.3-0.4-0.4-0.7-0.7c-1.3,0.6-3,1.1-4,2.2c-2.1,2.1-3.8,4.8-6.1,6.7c-2.1,1.7-2.9,4.6-7,4.7
	c-1.2,0-2.7,1.3-3.6,2.3c-4.2,5-8.1,10.1-12.3,15.1c-2.4,2.7-5.1,5.4-7.3,8.2c-2.1,2.6-3.8,5.3-5.7,8c-0.9,1.2-1.7,2.3-2.6,3.5
	c-0.3-0.1-0.4-0.1-0.7-0.1c-0.1-0.8-0.6-1.4-0.3-1.9c0.8-1.7,1.8-3.1,2.7-4.8c0.9-1.7,1.5-3.4,2.4-5c1.5-2.7,3.2-5.6,4.7-8.3
	c0.8-1.5,1.7-3,2.4-4.5c2.9-5.6,5.9-11.1,8.6-16.7c0.8-1.5,1.1-3.5,1.7-5.7c-4.2,1.3-5.2,3.9-6.7,6c-4.1,6.2-8,12.4-11.9,18.7
	c-1.8,2.7-3,5.8-4.5,8.7c-0.8,1.3-1.8,2.6-2.4,3.9c-1.1,2.3-1.8,4.8-3,7.1s-2.6,4.4-4.1,7c-0.3-0.7-0.4-1.2-0.4-1.4
	c0.8-4.8,1.9-9.4,2.6-14.2c0.3-1.9,0.3-4,0.5-6.1c0.3-4.4,0.8-8.8,1.3-13.2c0.2-1.2-0.3-2.2-0.6-3.5c-3,1.4-3,3.9-3.5,5.9
	c-0.8,3.2-0.8,6.7-2,10.1c-1.4,4-1.5,8.3-2.2,12.4c-0.8,3.8-1.4,7.5-2,11.1c-0.2,1-0.3,2.1-0.5,3.1c-0.4,0-0.6-0.1-1-0.1
	c0.5-5.2,0.8-10.2,1.3-15.3c0.2-1.4,0-3,0.2-4.4c0-3.9,0.5-7.9,0.5-11.9c0-1.6-0.4-3.1-0.9-4.7c-0.3,0-0.6,0-0.9,0
	c-0.8,1.7-1.7,3.5-2,5.2c-0.8,5.2-1.6,10.4-2,15.5c-0.6,5.3-1,10.5-1.3,15.7c0,2.6,0.7,5.2,0.4,7.8c-0.3,5.1,0.5,10.4-2.2,15.4
	c-1.1,2.2-1.2,4.8-2,7.2c-0.5,1.6-1.2,3.1-2.1,4.5s-2,2.8-3.2,4.1c-0.1,0.1-0.2,0.3-0.2,0.3c-3.3,0.5-2.4,3.4-3.8,5
	c-0.8,1-2.1,2.4-3.4,2.7c-3.1,0.5-4.9,1.5-4.9,4.5c1.6,0.1,3.4,0.3,5.3,0.6c2.1,0.3,2.2,1.1,1.9,2.7c-0.3,3.5-4.6,4.6-6,7.5
	c-3,0-2.7,2.3-3.9,3.6c-0.3,0.5-1.8,1-2.2,0.8c-2.5-1.3-4.7-2.8-7.1-4.3c-1-0.7-1.8-1.3-3.3-2.5c-0.2,4.8,1.9,8,5.3,11.1
	c1.5,1.3,2.8,2.6,3.4,4.2c0.9,2.2,2.5,3.8,4.9,5c1.2,0.7,2.1,1.6,2.5,2.6c1.5,2.9,3.7,3.4,6.4,1.2c1.2-0.9,2.2-1.4,4.2-1.1
	c1.6,0.1,3.4-0.5,5.7-0.7c-1.9-0.7-3.6-1.1-4-2.1c-0.7-0.4-0.7-1.6-1.2-2.3c0.7-0.3,1.8-0.5,2.7-0.5c2.1,0.1,2.7,1.2,3.4,2.9
	c1.2,3,3.1,5.7,4.8,8.5c0.3,0.4,0.9,0.8,1,1.2c0.3,1,0.4,2.1,0.7,3.2c-1.2,0-2.7,0.5-3.9,0.2c-3.1-0.5-6.4-1-9.5-1.8
	c-2.7-0.7-4.3,0.4-6.1,1.6c-1.2,0.9-2.8,1.4-4,2.2c-1,0.6-2.1,1.4-2.7,2.2c-1.4,2.1-1.2,4.1,0,6.7c1.5-2.5-0.7-6.2,3.5-7.1
	c3-0.6,4.8-3.7,8-2.5c-1.7,3.1-3.3,6.2-5,9.3c2.2-0.1,2.8-1.5,3.4-2.7c0.5-0.9,0.5-1.8,0.9-2.7c0.6-1.9,3.1-3,5.5-2.7
	c2.8,0.3,5.8,0.7,8.5,0.4c4.3-0.2,7.2-1.9,5.2-6.1c-0.7-1.8-2.1-3.5-3.4-5.9c1.2,0.4,2.4,0.4,3,0.9c4.1,3.7,6.5,3.4,9.7-1.1
	c0.5-0.6,1.5-1.2,2.4-1.4c3.9-1.3,7.6-2.9,10.3-6l-10.7,1.3c-0.1,0-0.1-0.1-0.3-0.3c1.5-0.6,2.8-1.4,4.3-2.2c0-0.3-0.1-0.4-0.1-0.5
	c-1.2,0.1-2.5,0.4-3.7,0.2c-0.4,0-1.2-0.5-1.6-0.8c0.3-0.3,0.9-0.8,1.3-1c1.5-0.6,3-1.1,4.3-2.2c-1.5-0.4-3.3-0.8-4.9-1.2
	c-0.1-0.3-0.1-0.3-0.1-0.5c1.8-0.6,3.6-1.1,5.4-1.8c0-0.3-0.1-0.3-0.1-0.5c-0.4,0-0.7,0-1.2-0.1c-0.6-0.3-1.2-0.8-1.9-1.1
	c0.6-0.3,1.2-0.8,1.8-1c2.1-0.8,4.3-1.4,6.4-2.2c0-0.3-0.1-0.4-0.1-0.6c-2.2-0.3-4.6-0.4-7.6-0.7c1-0.9,1.2-1.4,1.6-1.4
	c4.5-0.4,6-3.2,7.9-5.9c0.8-1,1.3-1.3,3-1.4c5.5-0.5,11-1.3,16.5-2.1c0.3-0.1,0.4-0.3,0.9-0.9c-1.5,0-2.5,0.1-3.6,0
	c-2.2-0.1-4.9,0.7-6.4-1.7c-0.3-0.4-1.9-0.3-2.4-0.3c5.1-1.1,10.6-2.4,16.2-3.5c0-0.3-0.1-0.5-0.1-0.8c-0.7,0-1.3-0.3-2.1-0.1
	c-1.2,0.1-2.5,0.5-3.7,0.4c-0.9-0.1-1.8-0.7-2.8-0.9c0.9-0.5,1.6-1.2,2.5-1.4c2.2-0.5,4.5-0.9,6.7-1.6c-5.1-0.7-10.4,0.3-15.9-1.9
	c3.6-1.4,6.6-2.4,9.7-3.6c-0.1-0.3-0.3-0.7-0.4-0.9c-1.9,0.4-4.2,0.7-6.1,1.1c-1.2,0.3-2.4,0.5-1.9-1.4c-2.5,0.9-4.9,1.4-7.2,2.2
	c-1.8,0.6-3.6,0-4.3-1.2c-0.6-0.8-0.4-2.2,0-3.4c0.2-0.5,1.2-1.4,1.9-1.7c6.4-2.5,12.7-4.7,19.6-1.5c5.3,2.4,7.7,6.5,8.7,11.2
	c1.4,6.5,2.3,13,3.3,19.5c0.3,2.6,0,5.3,0.7,7.8c1.3,4.2,3.2,8.2,4.8,12.3c0,0.3,0,0.4,0,0.6c-4-0.8-7.7-1.7-11.6-2.2
	c-4.3-0.4-8.9-0.5-12.5,2.4c-0.4,0.4-1.3,0.5-1.9,0.6c-6.6,1.2-11.5,4.3-16.1,7.9c-0.3,0.4-0.6,1-0.5,1.2c0.4,0.1,1.2,0.5,1.6,0.4
	c1.8-0.4,3.4-1.1,5.2-1.4c5.8-0.6,11.8-0.8,17.6-1.3c3.6-0.4,7.3-0.7,10.7-1.5c4.3-0.9,8.3-0.1,12.3,0.6c1,0.1,1.9,1.3,3.3,2.2
	c-2.1,0.5-3.4,1-4.9,1.3c-4.6,0.7-9.1,1.2-14,0.9c-3.7-0.3-7.6,0.9-11.3,1.7c-5.8,1.4-11.5,3.2-17.1,4.7c-3,0.8-5.8,1.1-9.4,1.9
	c2.8,2,5.8,2.1,8.5,2.3c4.6,0.2,9.1,0.1,13.7,0c3.6-0.1,7.1-0.2,10.7-0.6c1.6-0.2,3.6-0.8,5.1-1.5c6-3.1,12.4-4.6,19.2-5.2
	c0.6,0,1.3,0,2.2,0.3c-4.8,5.2-10.5,9.1-17.5,12.2c-7.2,3.3-14.6,3.8-22.6,3.5c-0.2,0.3-0.2,0.5-0.2,0.8c3.4,0.9,6.8,2.3,10.4,2.7
	c4.6,0.7,9.2,1,13.7,0.7c4.3-0.4,8.2-1.4,10.6-5.4c3-5.2,7.7-9.4,15.4-10.1c3.3-0.2,5.3,0.7,6.8,3.2c1.2,2,2.8,3.8,4.1,5.6
	c0.4,0,0.6-0.1,1-0.3c0-1,0.2-1.9,0.2-3.1c0.6,0,1.3-0.1,1.8,0.1c1.9,0.6,3.9,1.2,5.8,1.8l-0.2-30.3
	C176.8,237.1,173.9,234.8,170.7,232.6z M53.9,244.3c-1.3-0.1-2.7-0.3-4-0.4c0.2-0.4,0.2-0.8,0.2-1c1.3,0,2.7-0.1,4.3,0
	C54.2,243.3,54,244.3,53.9,244.3z M58.2,238.3c-2.1-1.3-2.1-2.5-1.3-3.6c0.6-0.8,1.6-1.2,2.5-1.8c0.3,0.3,0.6,0.4,0.9,0.7
	C59.8,235.1,59.3,236.5,58.2,238.3z M67,240.2c-0.9-0.8-1.9-1.4-3.1-2.4c0.9-0.8,1.6-1.4,2.4-2.2c0.4,0,0.6,0.1,1,0.1
	c0,1.4,0.3,2.9,0.4,4.3C67.4,240.1,67.3,240.2,67,240.2z M72.7,246.1c-0.4-0.1-0.6-1.8-0.9-2.9c0.3-0.1,0.4-0.3,0.7-0.4
	c1.6,0.5,3.3,1.2,4.9,1.7c0.1,0.3,0.1,0.8,0.1,1.1C75.9,245.8,74.2,246.4,72.7,246.1z M72,241.7c0.5-4.4,0.6-4.5,5.5-2.8
	C77.4,241.8,77.2,242,72,241.7z M78.5,235.5c-0.9,1.5-2.2,1-4-0.3c1.3-0.6,2.4-1.1,3.4-1.7C78,234.2,78.8,235.1,78.5,235.5z"/>
<g>
	<path class="st0" d="M207.6,137.6H143h-2.5v173.2h67.1c42.6,0,58.5-21.9,58.5-45v-83.2C266.1,159.2,250.2,137.6,207.6,137.6z
		 M227.1,255c0,13.6-4.7,21.1-24.2,21.1h-23.4v-104h23.4c19.5,0,24.2,7.6,24.2,21.1V255z"/>
	<path class="st0" d="M339.7,256.9h-22.9v53.8h-39V137.6h72c42.1,0,57.7,16.6,57.7,49.1v21.4c0,21.6-7.8,36.1-25.2,43.4l41.9,59.3
		h-46.3L339.7,256.9z M368.5,190.4c0-13-4.9-18.2-20.8-18.2h-30.9v51h30.9c16.6,0,20.8-6,20.8-19V190.4z"/>
	<path class="st0" d="M574.2,310.8h-40.6l-9.4-33.8h-58l-9.4,33.8h-40.6L469,137.6h52L574.2,310.8z M475.1,244.5h39.8L495.1,172
		L475.1,244.5z"/>
	<path class="st0" d="M632.4,313.4c-42.1,0-63.4-21.6-63.4-53v-72.3c0-32,21.3-53,63.4-53c20,0,40.6,2.6,55.4,5.5l-4.7,34.1
		c-15.1-2.3-38.2-4.2-50.7-4.2c-19.5,0-24.4,10.1-24.4,23.7v59.5c0,13.5,4.9,24.7,24.4,24.7c7.8,0,13-0.3,23.1-1.6v-53h36.7v81.4
		C673.2,310.5,652.4,313.4,632.4,313.4z"/>
	<path class="st0" d="M836.8,260.3c0,26.3-18.2,53-67.1,53s-67.1-26.8-67.1-53V188c0-26.3,18.2-53,67.1-53s67.1,26.8,67.1,53V260.3z
		 M797.8,191.4c0-13.5-8.6-21.8-28.1-21.8s-28.1,8.3-28.1,21.8v65.5c0,13.5,8.6,21.8,28.1,21.8s28.1-8.3,28.1-21.8V191.4z"/>
	<path class="st0" d="M885.7,196.9v113.9h-37.2V137.6h47.8l56.9,119.3V137.6h37.2v173.2h-48.1L885.7,196.9z"/>
</g>
<g>
	<path class="st0" d="M1122.3,310.8v-69.7h-55.9v69.7h-39V137.6h39v68.9h55.9v-68.9h39v173.2H1122.3z"/>
	<path class="st0" d="M1178.2,310.8V137.6h39v173.2H1178.2z"/>
	<path class="st0" d="M1234.1,310.8V137.6h39v138.6h68.6v34.6L1234.1,310.8L1234.1,310.8z"/>
	<path class="st0" d="M1345.7,310.8V137.6h39v138.6h68.6v34.6L1345.7,310.8L1345.7,310.8z"/>
</g>
<g>
	<path class="st0" d="M182.8,133.4c-11.6,0-23.9-2.6-32.6-6.5l3.8-17.5c9.2,2.8,18.5,4.9,29,4.9c11.6,0,13.9-2.2,13.9-10.6
		c0-9-0.4-10-16.9-13.7c-24.4-5.3-28-10-28-32c0-20.1,7.1-28.1,34.8-28.1c8.8,0,19.3,1,30.6,3.4L215.2,52c-11.4-2-18.9-2.8-27.9-2.8
		c-10,0-12.5,1.8-12.5,9.2c0,9.6,0.4,9.8,16.3,13.7c27.1,6.5,28.6,11.8,28.6,31.6C219.5,123.6,213.1,133.4,182.8,133.4z"/>
	<path class="st0" d="M291.2,101.3h-17.3v30.6h-22.5V31.4h41C316.9,31.4,328,41,328,60v13C328,91.9,315.7,101.3,291.2,101.3z
		 M305.3,61.9c0-7.2-4.6-10.6-14-10.6H274v30.4h17.3c10,0,14-3.8,14-11V61.9z"/>
	<path class="st0" d="M434.4,132h-23.5l-3.5-19.7h-33.8l-7.5,19.7h-23.5l32.6-100.5h30.2L434.4,132z M378.7,93.6h23.1l-11.4-42.2
		L378.7,93.6z"/>
	<path class="st0" d="M552.5,91.2h-14.7v37c-11.8,3.8-27.3,5.5-39.4,5.5c-23.3,0-30-10.8-30-25.1v-8.2c0-9.4,2.8-16.5,11.6-20.3
		c-7.6-4-10-11.4-10-18.5v-6.5c0-14.7,8.2-25.1,32-25.1c12.5,0,24.5,1.6,32.8,3.6L532.1,51c-8.8-1.8-20.8-2.8-30-2.8
		c-7.1,0-10.2,2.6-10.2,8v7.4c0,5.3,2,9.2,8.8,9.2h51.8L552.5,91.2L552.5,91.2z M490.3,105.8c0,6.5,4.5,9.8,11,9.8
		c6.3,0,10.8-0.4,16.1-1.6V91.2h-15.1c-7.1,0-11.8,2.8-11.8,9.2v5.5L490.3,105.8L490.3,105.8z"/>
	<path class="st0" d="M626,99.2h-13.3l-2,31.2H588l2-100.5h41.8c24.5,0,33.6,9.6,33.6,28.6V71c0,12.5-4.7,21-14.7,25.1l22.3,34.4
		h-26.9L626,99.2z M642.7,60.4c0-7.6-2.8-10.6-12-10.6h-17.9v29.6h17.9c9.6,0,12-3.4,12-11V60.4z"/>
	<path class="st0" d="M695.8,131.3l2-99.6h63.4v20h-40.6V70H758v20h-37.4v21.7h40.6l-2,20h-63.4V131.3z"/>
	<path class="st0" d="M816.4,133.2c-11.6,0-21.9-2.6-30.6-6.4l3.8-17.4c9.2,2.8,18.5,4.8,29,4.8c11.6,0,13.9-2.2,13.9-10.6
		c0-9-0.4-10-16.9-13.6c-24.3-5.2-27.9-10-27.9-31.8c0-20,7.1-28,34.8-28c8.8,0,19.3,1,30.6,3.4l-2.2,19c-11.4-2-18.9-2.8-27.9-2.8
		c-10,0-12.5,1.8-12.5,9.2c0,9.6,0.4,9.8,16.3,13.6c27.1,6.4,28.6,11.8,28.6,31.4C855.4,123.4,846.8,133.2,816.4,133.2z"/>
	<path class="st0" d="M954,100.4c0,15.3-12.6,30.8-41,30.8s-37-15.5-37-30.8v-42c0-15.3,10.6-30.8,39-30.8s39,15.5,39,30.8V100.4z
		 M931.4,60.4c0-7.8-5.1-12.7-16.3-12.7s-16.3,4.9-16.3,12.7v38.2c0,7.8,5.1,12.7,16.3,12.7s16.3-4.9,16.3-12.7V60.4z"/>
	<path class="st0" d="M1018.5,98.4h-13.3l-2,31.2h-22.7l2-100.5h41.8c24.5,0,33.6,9.6,33.6,28.6v12.5c0,12.5-4.7,21-14.7,25.1
		l22.3,34.4h-26.9L1018.5,98.4z M1035.1,59.7c0-7.6-2.8-10.6-12-10.6h-17.9v29.6h17.9c9.6,0,12-3.4,12-11V59.7z"/>
	<path class="st0" d="M1130,50.8l-2,80.4h-22.7l2-80.4h-26.9V30.6h76.8v20.1C1157.3,50.8,1130,50.8,1130,50.8z"/>
</g>
</svg>
